<svg width="0" height="0" class="hidden">
  <symbol fill="none" xmlns="http://www.w3.org/2000/svg" viewBox="0 0 72 88" id="facebook">
    <path d="M58.9721 14.6081H72V0.616131C65.6922 0.199658 59.3543 -0.00595883 53.0125 0.000131402C34.1636 0.000131402 21.2743 7.30412 21.2743 20.6801V32.2081H0V47.8721H21.2743V88H46.7757V47.8721H67.9807L71.1684 32.2081H46.7757V22.2201C46.7757 17.6001 48.7161 14.6081 58.9721 14.6081Z" fill="white"></path>
  </symbol>
  <symbol xmlns="http://www.w3.org/2000/svg" viewBox="0 0 2476 2476" id="instagram">
    <path d="M825.4 1238c0-227.9 184.7-412.7 412.6-412.7 227.9 0 412.7 184.8 412.7 412.7 0 227.9-184.8 412.7-412.7 412.7-227.9 0-412.6-184.8-412.6-412.7m-223.1 0c0 351.1 284.6 635.7 635.7 635.7s635.7-284.6 635.7-635.7-284.6-635.7-635.7-635.7S602.3 886.9 602.3 1238m1148-660.9c0 82 66.5 148.6 148.6 148.6 82 0 148.6-66.6 148.6-148.6s-66.5-148.5-148.6-148.5-148.6 66.5-148.6 148.5M737.8 2245.7c-120.7-5.5-186.3-25.6-229.9-42.6-57.8-22.5-99-49.3-142.4-92.6-43.3-43.3-70.2-84.5-92.6-142.3-17-43.6-37.1-109.2-42.6-229.9-6-130.5-7.2-169.7-7.2-500.3s1.3-369.7 7.2-500.3c5.5-120.7 25.7-186.2 42.6-229.9 22.5-57.8 49.3-99 92.6-142.4 43.3-43.3 84.5-70.2 142.4-92.6 43.6-17 109.2-37.1 229.9-42.6 130.5-6 169.7-7.2 500.2-7.2 330.6 0 369.7 1.3 500.3 7.2 120.7 5.5 186.2 25.7 229.9 42.6 57.8 22.4 99 49.3 142.4 92.6 43.3 43.3 70.1 84.6 92.6 142.4 17 43.6 37.1 109.2 42.6 229.9 6 130.6 7.2 169.7 7.2 500.3 0 330.5-1.2 369.7-7.2 500.3-5.5 120.7-25.7 186.3-42.6 229.9-22.5 57.8-49.3 99-92.6 142.3-43.3 43.3-84.6 70.1-142.4 92.6-43.6 17-109.2 37.1-229.9 42.6-130.5 6-169.7 7.2-500.3 7.2-330.5 0-369.7-1.2-500.2-7.2M727.6 7.5c-131.8 6-221.8 26.9-300.5 57.5-81.4 31.6-150.4 74-219.3 142.8C139 276.6 96.6 345.6 65 427.1 34.4 505.8 13.5 595.8 7.5 727.6 1.4 859.6 0 901.8 0 1238s1.4 378.4 7.5 510.4c6 131.8 26.9 221.8 57.5 300.5 31.6 81.4 73.9 150.5 142.8 219.3 68.8 68.8 137.8 111.1 219.3 142.8 78.8 30.6 168.7 51.5 300.5 57.5 132.1 6 174.2 7.5 510.4 7.5 336.3 0 378.4-1.4 510.4-7.5 131.8-6 221.8-26.9 300.5-57.5 81.4-31.7 150.4-74 219.3-142.8 68.8-68.8 111.1-137.9 142.8-219.3 30.6-78.7 51.6-168.7 57.5-300.5 6-132.1 7.4-174.2 7.4-510.4s-1.4-378.4-7.4-510.4c-6-131.8-26.9-221.8-57.5-300.5-31.7-81.4-74-150.4-142.8-219.3C2199.4 139 2130.3 96.6 2049 65c-78.8-30.6-168.8-51.6-300.5-57.5-132-6-174.2-7.5-510.4-7.5-336.3 0-378.4 1.4-510.5 7.5"></path>
  </symbol>
  <symbol xmlns="http://www.w3.org/2000/svg" enable-background="new 0 0 128 128" viewBox="0 0 128 128" id="linkdin">
    <path fill-rule="evenodd" d="M72.658 52.912c7.188-8.265 15.318-12.457 25.597-11.951 16.723.822 28.493 12.464 29.339 30.639.743 16.008.216 32.072.33 48.108.028 3.848-1.774 5.286-5.467 5.193-4.947-.125-9.912-.239-14.847.049-4.896.286-6.758-1.679-6.674-6.542.193-10.887.074-21.782.053-32.673-.007-2.968.03-5.95-.202-8.904-.715-9.143-6.08-14.661-14.034-14.599-8.175.063-14.789 6.633-14.933 15.374-.211 12.868-.084 25.741-.111 38.612-.019 8.618-.026 8.618-8.535 8.674-18.4.118-18.393.118-18.4-18.286-.007-18.811.13-37.627-.144-56.434-.079-5.446 1.742-7.627 7.172-7.118 3.14.295 6.331.033 9.501.046C70.761 43.142 70.761 43.147 72.658 52.912zM1.921 83.654c0-11.282.207-22.569-.091-33.842-.137-5.272 1.876-7.097 6.958-6.784 4.93.302 9.896.17 14.84.065 3.714-.077 5.393 1.435 5.379 5.27-.088 23.751-.1 47.499-.054 71.25.007 3.802-1.637 5.369-5.376 5.29-5.341-.114-10.692-.156-16.029.021-4.097.137-5.636-1.614-5.592-5.646.13-11.874.046-23.751.046-35.625C1.977 83.654 1.949 83.654 1.921 83.654zM15.182 31.319C6.494 31.282.059 25.299 0 17.203-.06 9.245 6.582 3.029 15.147 3.023c9.32-.005 15.632 5.739 15.595 14.19C30.702 25.819 24.592 31.356 15.182 31.319z" clip-rule="evenodd"></path>
  </symbol>
  <symbol fill="none" xmlns="http://www.w3.org/2000/svg" viewBox="0 0 88 92" id="telegram">
    <path d="M64.1297 29.3071C66.8286 25.8889 69.5079 17.9129 58.2625 27.598C42.2843 41.5621 26.5359 54.6716 26.5359 54.6716C24.9148 55.6 23.1623 56.1039 21.3836 56.1528C19.6049 56.2018 17.8367 55.7948 16.1853 54.9565C9.43808 52.3928 1.56144 48.9745 1.56144 48.9745C1.56144 48.9745 -3.81678 44.6955 5.38975 40.1378C5.38975 40.1378 44.3134 19.9069 57.8127 12.7794C62.9856 9.9308 80.5332 0.815442 80.5332 0.815442C80.5332 0.815442 88.6348 -3.17872 87.9601 6.51254C87.7352 10.5005 85.9359 24.4708 84.1366 39.5681C81.4329 60.9384 78.5091 84.3089 78.5091 84.3089C78.5091 84.3089 78.0593 90.8606 74.2358 92C70.1429 91.9123 66.1884 90.1092 62.9905 86.8726C62.0908 86.018 46.1175 73.1934 40.2651 66.9266C39.6697 66.4158 39.1861 65.7226 38.8591 64.9115C38.5321 64.1004 38.3724 63.1977 38.3948 62.2874C38.4173 61.3771 38.6211 60.4888 38.9874 59.7051C39.3538 58.9214 39.8706 58.2678 40.49 57.805C48.6062 48.4048 58.2821 36.7196 64.1297 29.3071Z" fill="white"></path>
  </symbol>
  <symbol fill="none" xmlns="http://www.w3.org/2000/svg" viewBox="0 0 92 86" id="twitter">
    <path d="M92 10.3034C88.5423 12.0259 84.8858 13.1645 81.144 13.684C85.0916 10.9759 88.0499 6.71564 89.47 1.69346C85.7603 4.22923 81.6995 6.01583 77.464 6.97562C74.6329 3.45016 70.8629 1.10342 66.7451 0.303469C62.6274 -0.496487 58.3949 0.295583 54.7114 2.55545C51.028 4.81532 48.1019 8.41517 46.3921 12.7904C44.6823 17.1656 44.2855 22.0688 45.264 26.7309C37.7634 26.2952 30.4264 24.0526 23.7298 20.1486C17.0332 16.2446 11.1267 10.7666 6.394 4.07043C4.73403 7.39908 3.86179 11.1687 3.864 15.0045C3.85811 18.5667 4.6194 22.0753 6.08007 25.2179C7.54075 28.3605 9.65548 31.0396 12.236 33.0167C9.2367 32.9229 6.30147 31.9988 3.68 30.3228V30.5869C3.70248 35.5779 5.22557 40.4069 7.99165 44.2569C10.7577 48.1069 14.597 50.7417 18.86 51.7155C17.219 52.289 15.5152 52.5913 13.8 52.6135C12.6127 52.5975 11.4283 52.4739 10.258 52.2437C11.472 56.5371 13.8213 60.2892 16.9789 62.9779C20.1366 65.6666 23.9456 67.1582 27.876 67.245C21.2391 73.2417 13.0451 76.5145 4.6 76.5416C3.06238 76.5474 1.52598 76.4416 0 76.2247C8.62237 82.6175 18.6705 86.0111 28.934 85.9967C36.0166 86.0812 43.0428 84.5442 49.6023 81.4756C56.1618 78.407 62.1231 73.8683 67.1379 68.1245C72.1528 62.3807 76.1206 55.5471 78.8098 48.0228C81.4989 40.4984 82.8554 32.4342 82.8 24.3011C82.8 23.4031 82.8 22.4523 82.8 21.5016C86.4096 18.4105 89.5228 14.6211 92 10.3034V10.3034Z" fill="white"></path>
  </symbol>
</svg>