<svg width="0" height="0" class="hidden">
  <symbol fill="none" xmlns="http://www.w3.org/2000/svg" viewBox="0 0 36 36" id="linkedin">
    <rect width="36" height="36" fill="#FF7262"></rect>
    <path d="M24 12C26.3869 12 28.6761 12.9482 30.364 14.636C32.0518 16.3239 33 18.6131 33 21V31.5H27V21C27 20.2044 26.6839 19.4413 26.1213 18.8787C25.5587 18.3161 24.7956 18 24 18C23.2044 18 22.4413 18.3161 21.8787 18.8787C21.3161 19.4413 21 20.2044 21 21V31.5H15V21C15 18.6131 15.9482 16.3239 17.636 14.636C19.3239 12.9482 21.6131 12 24 12Z" fill="#F9F9FA" stroke="#F4F5F6" stroke-width="2" stroke-linecap="round" stroke-linejoin="round"></path>
    <path d="M9 13.5H3V31.5H9V13.5Z" fill="white" stroke="white" stroke-width="2" stroke-linecap="round" stroke-linejoin="round"></path>
    <path d="M6 9C7.65685 9 9 7.65685 9 6C9 4.34315 7.65685 3 6 3C4.34315 3 3 4.34315 3 6C3 7.65685 4.34315 9 6 9Z" fill="white" stroke="white" stroke-width="2" stroke-linecap="round" stroke-linejoin="round"></path>
  </symbol>
  <symbol fill="none" xmlns="http://www.w3.org/2000/svg" viewBox="0 0 36 32" id="Location">
    <path fill-rule="evenodd" clip-rule="evenodd" d="M12.7974 3.91569C16.0747 2.22303 20.103 2.25262 23.3496 3.99319C26.5642 5.76922 28.5179 8.9389 28.4998 12.3486C28.4249 15.7359 26.3299 18.92 23.7112 21.3815C22.1998 22.8085 20.5089 24.0704 18.6733 25.1414C18.4842 25.2386 18.2771 25.3036 18.0622 25.3333C17.8554 25.3255 17.654 25.2712 17.4761 25.1753C14.6736 23.5661 12.215 21.512 10.2185 19.1119C8.54788 17.1085 7.59875 14.688 7.5 12.1792C7.49783 8.76299 9.52015 5.60836 12.7974 3.91569ZM14.6912 13.593C15.2425 14.8011 16.5438 15.5891 17.9874 15.5891C18.9332 15.5952 19.8423 15.2584 20.5122 14.654C21.1821 14.0495 21.5572 13.2275 21.5539 12.3712C21.5589 11.064 20.6932 9.88308 19.3609 9.3797C18.0286 8.87631 16.4926 9.1498 15.47 10.0725C14.4474 10.9951 14.14 12.385 14.6912 13.593Z" fill="#FF7262"></path>
    <ellipse opacity="0.4" cx="18" cy="28" rx="7.5" ry="1.33333" fill="#FF7262"></ellipse>
  </symbol>
  <symbol fill="none" xmlns="http://www.w3.org/2000/svg" viewBox="0 0 35 29" id="Mask group">
    <path fill-rule="evenodd" clip-rule="evenodd" d="M3.4481 4.59935C3.49452 4.56202 3.56342 4.50661 3.62344 4.45009L12.7151 5.50492C13.6647 6.28851 13.8038 6.81895 13.7918 7.20209C13.7847 7.43068 13.7214 7.67952 13.6066 7.98725C13.5494 8.14035 13.4837 8.29755 13.4103 8.47096L13.3882 8.52333L13.3881 8.52339C13.3225 8.67826 13.2515 8.84599 13.1844 9.0174C12.8794 9.79617 12.6077 10.7654 12.9583 11.9437C13.2997 13.091 14.1941 14.314 15.9087 15.7281C17.6344 17.1515 19.0851 17.8558 20.3827 18.1181C21.6884 18.382 22.7623 18.1818 23.68 17.9365C23.9148 17.8737 24.1305 17.8116 24.3329 17.7533L24.3329 17.7533C24.9603 17.5726 25.46 17.4287 26.005 17.4169C26.6421 17.403 27.3592 17.5836 28.2982 18.3577C28.8073 18.7776 29.2892 19.1557 29.7267 19.499L29.7502 19.5175C30.1974 19.8684 30.5923 20.1787 30.9363 20.4697C31.6477 21.0713 32.0277 21.5011 32.1773 21.8739C32.2926 22.1611 32.3047 22.499 31.9536 23.0654C31.5799 23.6683 30.8434 24.4405 29.5768 25.4867C29.5094 25.5353 29.4418 25.5926 29.3952 25.632L29.3836 25.6418L29.3759 25.6483C29.3077 25.706 29.2354 25.767 29.1496 25.8343C28.9743 25.9719 28.7449 26.1332 28.4474 26.2849C27.8592 26.5848 26.9624 26.869 25.637 26.8028C22.9581 26.669 18.4682 25.0983 11.2847 19.1734C4.06898 13.222 2.24791 9.56612 2.09441 7.49279C2.02039 6.4931 2.33036 5.82121 2.67096 5.36589C2.84601 5.13188 3.03533 4.94753 3.20251 4.80235C3.28409 4.73151 3.35821 4.67177 3.42828 4.61531L3.4355 4.60949L3.44809 4.59935L3.4481 4.59935ZM3.62344 4.45009L12.715 5.50482C12.1999 5.07994 11.7368 4.67789 11.3169 4.31334L11.3089 4.30636C10.8837 3.93717 10.508 3.61121 10.1554 3.32691C9.4417 2.75131 8.89639 2.40942 8.37272 2.2658C7.41795 2.00395 6.20317 2.32561 3.62344 4.45009ZM12.2956 3.17657L12.2956 3.17654L12.2923 3.1737L12.2909 3.17252C11.8713 2.80815 11.4745 2.46364 11.0971 2.15929C10.3501 1.55691 9.60504 1.04838 8.76945 0.819216C7.00848 0.33627 5.23356 1.17695 2.64595 3.31192C2.62504 3.32917 2.60508 3.34754 2.58616 3.36696C2.58902 3.36402 2.5885 3.36445 2.57999 3.37153L2.57997 3.37154L2.57996 3.37156C2.56873 3.38089 2.54365 3.40175 2.49422 3.44159L2.48359 3.45015C2.41487 3.50552 2.3219 3.58043 2.21898 3.6698C2.00076 3.85931 1.72873 4.12129 1.46983 4.4674C0.942548 5.17229 0.494272 6.19572 0.5985 7.60354C0.80148 10.3452 3.08283 14.353 10.3302 20.3306C17.6081 26.3333 22.4062 28.1433 25.5621 28.3009C27.1541 28.3805 28.3112 28.0381 29.1287 27.6213C29.534 27.4146 29.8454 27.195 30.0755 27.0145C30.1833 26.9299 30.2738 26.8534 30.3409 26.7967L30.341 26.7966L30.3517 26.7875C30.4078 26.7402 30.433 26.7197 30.4422 26.7122L30.4423 26.7122C30.4467 26.7086 30.4473 26.7081 30.4458 26.7091C30.4675 26.6947 30.4884 26.6792 30.5085 26.6627C31.8142 25.5861 32.7174 24.6803 33.2286 23.8557C33.7645 22.9911 33.9046 22.1504 33.5694 21.3152C33.2686 20.5656 32.62 19.9291 31.905 19.3244C31.536 19.0122 31.1183 18.6843 30.6762 18.3374L30.6573 18.3225L30.6572 18.3225C30.2171 17.9772 29.7475 17.6087 29.2527 17.2005L29.2525 17.2004C28.0751 16.2297 27.0163 15.8945 25.9724 15.9172C25.2123 15.9338 24.4619 16.1516 23.7979 16.3444C23.623 16.3952 23.4542 16.4442 23.2928 16.4873C22.4733 16.7064 21.659 16.8458 20.6798 16.6478C19.6925 16.4483 18.4615 15.8893 16.8631 14.5709C15.2535 13.2434 14.6156 12.254 14.396 11.5159C14.1856 10.8088 14.3245 10.2196 14.5811 9.56437C14.6402 9.41329 14.7031 9.26482 14.7698 9.10733L14.7917 9.05553C14.8648 8.88286 14.9422 8.69859 15.0119 8.51168C15.1509 8.13938 15.2766 7.71402 15.2911 7.24892C15.3225 6.24471 14.8356 5.30986 13.6697 4.34784L13.6696 4.34774C13.1691 3.93496 12.718 3.54331 12.2956 3.17657ZM21.1748 1.36907C21.2126 0.956586 21.5776 0.652836 21.9901 0.690627C28.4074 1.27856 33.6473 5.48081 34.3982 11.0055C34.454 11.4159 34.1665 11.7939 33.756 11.8497C33.3456 11.9055 32.9676 11.6179 32.9118 11.2075C32.2794 6.55443 27.7726 2.72669 21.8533 2.18437C21.4408 2.14658 21.137 1.78156 21.1748 1.36907ZM21.1811 6.19045C21.2467 5.78146 21.6314 5.50303 22.0404 5.56857C25.2189 6.07793 27.8245 8.15238 28.4849 10.9493C28.5801 11.3524 28.3305 11.7564 27.9274 11.8516C27.5242 11.9467 27.1203 11.6971 27.0251 11.294C26.5355 9.22062 24.5278 7.48632 21.803 7.04968C21.394 6.98413 21.1156 6.59945 21.1811 6.19045Z" fill="#FF7262"></path>
  </symbol>
  <symbol fill="none" xmlns="http://www.w3.org/2000/svg" viewBox="0 0 24 20" id="Vector">
    <path d="M23 1.01006C22.0424 1.68553 20.9821 2.20217 19.86 2.54006C19.2577 1.84757 18.4573 1.35675 17.567 1.13398C16.6767 0.911216 15.7395 0.967251 14.8821 1.29451C14.0247 1.62177 13.2884 2.20446 12.773 2.96377C12.2575 3.72309 11.9877 4.62239 12 5.54006V6.54006C10.2426 6.58562 8.50127 6.19587 6.93101 5.4055C5.36074 4.61513 4.01032 3.44869 3 2.01006C3 2.01006 -1 11.0101 8 15.0101C5.94053 16.408 3.48716 17.109 1 17.0101C10 22.0101 21 17.0101 21 5.51006C20.9991 5.23151 20.9723 4.95365 20.92 4.68006C21.9406 3.67355 22.6608 2.40277 23 1.01006Z" fill="#FF7262" stroke="white" stroke-opacity="0.05" stroke-width="2" stroke-linecap="round" stroke-linejoin="round"></path>
  </symbol>
  <symbol fill="none" xmlns="http://www.w3.org/2000/svg" viewBox="0 0 41 32" id="Message">
    <rect width="41" height="32" fill="#F4F5F6"></rect>
    <path opacity="0.4" d="M37.5832 21.2536C37.5832 24.9736 33.7565 27.9869 28.9903 28.0003H28.9732H12.0436C7.29442 28.0003 3.4165 25.0003 3.4165 21.2803V21.2669C3.4165 21.2669 3.42675 15.3656 3.44042 12.3976C3.44213 11.8403 4.26213 11.5283 4.82075 11.8749C8.87975 14.3883 16.1385 18.9709 16.229 19.0309C17.4419 19.7896 18.9794 20.2176 20.5511 20.2176C22.1228 20.2176 23.6603 19.7896 24.8732 19.0163C24.9637 18.9696 32.0601 14.5243 36.1806 11.9696C36.741 11.6216 37.5644 11.9336 37.5661 12.4896C37.5832 15.4349 37.5832 21.2536 37.5832 21.2536Z" fill="#FF7262"></path>
    <path d="M36.6883 7.5648C35.2088 5.3888 32.2978 3.99947 29.093 3.99947H12.0438C8.839 3.99947 5.928 5.3888 4.44859 7.5648C4.11717 8.05147 4.27434 8.65813 4.82613 9.00213L17.5105 16.9208C18.3988 17.4808 19.4751 17.7595 20.5513 17.7595C20.5582 17.7595 20.5633 17.7595 20.5684 17.7595C20.5735 17.7595 20.5804 17.7595 20.5855 17.7595C21.6618 17.7595 22.738 17.4808 23.6263 16.9208L36.3107 9.00213C36.8625 8.65813 37.0197 8.05147 36.6883 7.5648Z" fill="#FF7262"></path>
  </symbol>
  <symbol fill="none" xmlns="http://www.w3.org/2000/svg" viewBox="0 0 28 34" id="Vector-1">
    <path d="M28 1.00002C28 0.44773 27.5523 1.52588e-05 27 1.52588e-05H20.3636C16.9882 1.52588e-05 13.7509 0.895548 11.3641 2.48961C8.97727 4.08367 7.63636 6.24568 7.63636 8.50002V12.6C7.63636 13.1523 7.18865 13.6 6.63636 13.6H0.999999C0.447715 13.6 0 14.0477 0 14.6V19.4C0 19.9523 0.447715 20.4 1 20.4H6.63636C7.18865 20.4 7.63636 20.8477 7.63636 21.4V33C7.63636 33.5523 8.08408 34 8.63636 34H13.3226H16.8182C17.3705 34 17.8182 33.5523 17.8182 33V21.4C17.8182 20.8477 18.2659 20.4 18.8182 20.4H24.7611C25.1782 20.4 25.5514 20.1412 25.6976 19.7506L27.4944 14.9506C27.7391 14.2969 27.2559 13.6 26.5579 13.6H18.8182C18.2659 13.6 17.8182 13.1523 17.8182 12.6V8.50002C17.8182 8.04915 18.0864 7.61675 18.5637 7.29793C19.0411 6.97912 19.6885 6.80002 20.3636 6.80002H27C27.5523 6.80002 28 6.3523 28 5.80002V1.00002Z" fill="#FF7262"></path>
  </symbol>
</svg>