<svg width="88" height="92" viewBox="0 0 88 92" fill="none" xmlns="http://www.w3.org/2000/svg">
<path d="M64.1297 29.3071C66.8286 25.8889 69.5079 17.9129 58.2625 27.598C42.2843 41.5621 26.5359 54.6716 26.5359 54.6716C24.9148 55.6 23.1623 56.1039 21.3836 56.1528C19.6049 56.2018 17.8367 55.7948 16.1853 54.9565C9.43808 52.3928 1.56144 48.9745 1.56144 48.9745C1.56144 48.9745 -3.81678 44.6955 5.38975 40.1378C5.38975 40.1378 44.3134 19.9069 57.8127 12.7794C62.9856 9.9308 80.5332 0.815442 80.5332 0.815442C80.5332 0.815442 88.6348 -3.17872 87.9601 6.51254C87.7352 10.5005 85.9359 24.4708 84.1366 39.5681C81.4329 60.9384 78.5091 84.3089 78.5091 84.3089C78.5091 84.3089 78.0593 90.8606 74.2358 92C70.1429 91.9123 66.1884 90.1092 62.9905 86.8726C62.0908 86.018 46.1175 73.1934 40.2651 66.9266C39.6697 66.4158 39.1861 65.7226 38.8591 64.9115C38.5321 64.1004 38.3724 63.1977 38.3948 62.2874C38.4173 61.3771 38.6211 60.4888 38.9874 59.7051C39.3538 58.9214 39.8706 58.2678 40.49 57.805C48.6062 48.4048 58.2821 36.7196 64.1297 29.3071Z" fill="white"/>
</svg>
