<svg width="92" height="86" viewBox="0 0 92 86" fill="none" xmlns="http://www.w3.org/2000/svg">
<path d="M92 10.3034C88.5423 12.0259 84.8858 13.1645 81.144 13.684C85.0916 10.9759 88.0499 6.71564 89.47 1.69346C85.7603 4.22923 81.6995 6.01583 77.464 6.97562C74.6329 3.45016 70.8629 1.10342 66.7451 0.303469C62.6274 -0.496487 58.3949 0.295583 54.7114 2.55545C51.028 4.81532 48.1019 8.41517 46.3921 12.7904C44.6823 17.1656 44.2855 22.0688 45.264 26.7309C37.7634 26.2952 30.4264 24.0526 23.7298 20.1486C17.0332 16.2446 11.1267 10.7666 6.394 4.07043C4.73403 7.39908 3.86179 11.1687 3.864 15.0045C3.85811 18.5667 4.6194 22.0753 6.08007 25.2179C7.54075 28.3605 9.65548 31.0396 12.236 33.0167C9.2367 32.9229 6.30147 31.9988 3.68 30.3228V30.5869C3.70248 35.5779 5.22557 40.4069 7.99165 44.2569C10.7577 48.1069 14.597 50.7417 18.86 51.7155C17.219 52.289 15.5152 52.5913 13.8 52.6135C12.6127 52.5975 11.4283 52.4739 10.258 52.2437C11.472 56.5371 13.8213 60.2892 16.9789 62.9779C20.1366 65.6666 23.9456 67.1582 27.876 67.245C21.2391 73.2417 13.0451 76.5145 4.6 76.5416C3.06238 76.5474 1.52598 76.4416 0 76.2247C8.62237 82.6175 18.6705 86.0111 28.934 85.9967C36.0166 86.0812 43.0428 84.5442 49.6023 81.4756C56.1618 78.407 62.1231 73.8683 67.1379 68.1245C72.1528 62.3807 76.1206 55.5471 78.8098 48.0228C81.4989 40.4984 82.8554 32.4342 82.8 24.3011C82.8 23.4031 82.8 22.4523 82.8 21.5016C86.4096 18.4105 89.5228 14.6211 92 10.3034V10.3034Z" fill="white"/>
</svg>
